HIERARCHY
ROOT hips
{
	OFFSET -0.003675 0.299928 -0.021708
	CHANNELS 6 Xposition Yposition Zposition Xrotation Yrotation Zrotation
	JOINT LowerBack
	{
		OFFSET 0.000919 0.177588 0.009275
		CHANNELS 3 Xrotation Yrotation Zrotation
		JOINT spine
		{
			OFFSET 0.000919 0.177588 0.009275
			CHANNELS 3 Xrotation Yrotation Zrotation
			JOINT chest
			{
				OFFSET 0.000456 0.100015 0.004638
				CHANNELS 3 Xrotation Yrotation Zrotation
				JOINT neck
				{
					OFFSET 0.000456 0.100015 0.004638
					CHANNELS 3 Xrotation Yrotation Zrotation
					JOINT head
					{
						OFFSET 0.000924 0.155147 0.009274
						CHANNELS 6 Xposition Yposition Zposition Xrotation Yrotation Zrotation
						End Site
						{
							OFFSET 0.000000 0.153400 0.000000
						}
					}
				}
				JOINT shoulder.L
				{
					OFFSET 0.019937 0.078966 0.057518
					CHANNELS 6 Xposition Yposition Zposition Yrotation Xrotation Zrotation
					JOINT upper_arm.L
					{
						OFFSET 0.177024 -0.020465 -0.095062
						CHANNELS 6 Xposition Yposition Zposition Xrotation Yrotation Zrotation
						JOINT forearm.L
						{
							OFFSET 0.247100 -0.135500 -0.061800
							CHANNELS 3 Xrotation Yrotation Zrotation
							JOINT hand.L
							{
								OFFSET 0.217000 -0.143000 0.039300
								CHANNELS 3 Xrotation Yrotation Zrotation
								JOINT palm.01.L
								{
									OFFSET 0.021770 -0.038291 0.012954
									CHANNELS 6 Xposition Yposition Zposition Yrotation Xrotation Zrotation
									JOINT f_index.01.L
									{
										OFFSET 0.053215 -0.044137 0.008236
										CHANNELS 3 Xrotation Yrotation Zrotation
										JOINT f_index.02.L
										{
											OFFSET 0.036108 -0.024723 -0.010656
											CHANNELS 3 Xrotation Yrotation Zrotation
											JOINT f_index.03.L
											{
												OFFSET 0.021342 -0.014948 -0.010846
												CHANNELS 3 Xrotation Yrotation Zrotation
												End Site
												{
													OFFSET 0.015600 -0.009860 -0.013421
												}
											}
										}
									}
									JOINT thumb.01.L
									{
										OFFSET -0.009090 -0.002348 -0.024223
										CHANNELS 6 Xposition Yposition Zposition Xrotation Yrotation Zrotation
										JOINT thumb.02.L
										{
											OFFSET 0.019713 -0.035076 -0.011120
											CHANNELS 3 Xrotation Yrotation Zrotation
											JOINT thumb.03.L
											{
												OFFSET 0.024877 -0.021748 -0.005176
												CHANNELS 3 Xrotation Yrotation Zrotation
												End Site
												{
													OFFSET 0.016125 -0.013029 -0.001569
												}
											}
										}
									}
								}
								JOINT palm.02.L
								{
									OFFSET 0.032823 -0.025104 0.012281
									CHANNELS 6 Xposition Yposition Zposition Yrotation Xrotation Zrotation
									JOINT f_middle.01.L
									{
										OFFSET 0.055723 -0.038469 0.008037
										CHANNELS 3 Xrotation Yrotation Zrotation
										JOINT f_middle.02.L
										{
											OFFSET 0.038167 -0.027473 -0.015582
											CHANNELS 3 Xrotation Yrotation Zrotation
											JOINT f_middle.03.L
											{
												OFFSET 0.021707 -0.016587 -0.017037
												CHANNELS 3 Xrotation Yrotation Zrotation
												End Site
												{
													OFFSET 0.014112 -0.010584 -0.014294
												}
											}
										}
									}
								}
								JOINT palm.03.L
								{
									OFFSET 0.039230 -0.011402 0.008390
									CHANNELS 6 Xposition Yposition Zposition Yrotation Xrotation Zrotation
									JOINT f_ring.01.L
									{
										OFFSET 0.061796 -0.031470 0.007910
										CHANNELS 3 Xrotation Yrotation Zrotation
										JOINT f_ring.02.L
										{
											OFFSET 0.033092 -0.023401 -0.019127
											CHANNELS 3 Xrotation Yrotation Zrotation
											JOINT f_ring.03.L
											{
												OFFSET 0.021392 -0.015362 -0.017824
												CHANNELS 3 Xrotation Yrotation Zrotation
												End Site
												{
													OFFSET 0.008670 -0.007297 -0.014686
												}
											}
										}
									}
								}
								JOINT palm.04.L
								{
									OFFSET 0.043417 0.002450 0.002889
									CHANNELS 6 Xposition Yposition Zposition Yrotation Xrotation Zrotation
									JOINT f_pinky.01.L
									{
										OFFSET 0.069986 -0.026156 0.003627
										CHANNELS 3 Xrotation Yrotation Zrotation
										JOINT f_pinky.02.L
										{
											OFFSET 0.018520 -0.012813 -0.016429
											CHANNELS 3 Xrotation Yrotation Zrotation
											JOINT f_pinky.03.L
											{
												OFFSET 0.013822 -0.009796 -0.014947
												CHANNELS 3 Xrotation Yrotation Zrotation
												End Site
												{
													OFFSET 0.007238 -0.006103 -0.011657
												}
											}
										}
									}
								}
							}
						}
					}
				}
				JOINT shoulder.R
				{
					OFFSET -0.016662 0.078957 0.057696
					CHANNELS 6 Xposition Yposition Zposition Yrotation Xrotation Zrotation
					JOINT upper_arm.R
					{
						OFFSET -0.176972 -0.020537 -0.095144
						CHANNELS 6 Xposition Yposition Zposition Xrotation Yrotation Zrotation
						JOINT forearm.R
						{
							OFFSET -0.247100 -0.135500 -0.061800
							CHANNELS 3 Xrotation Yrotation Zrotation
							JOINT hand.R
							{
								OFFSET -0.217000 -0.143000 0.039300
								CHANNELS 3 Xrotation Yrotation Zrotation
								JOINT palm.01.R
								{
									OFFSET -0.021773 -0.038278 0.012988
									CHANNELS 6 Xposition Yposition Zposition Yrotation Xrotation Zrotation
									JOINT f_index.01.R
									{
										OFFSET -0.053212 -0.044139 0.008249
										CHANNELS 3 Xrotation Yrotation Zrotation
										JOINT f_index.02.R
										{
											OFFSET -0.036049 -0.024835 -0.010634
											CHANNELS 3 Xrotation Yrotation Zrotation
											JOINT f_index.03.R
											{
												OFFSET -0.021371 -0.014881 -0.010866
												CHANNELS 3 Xrotation Yrotation Zrotation
												End Site
												{
													OFFSET -0.015584 -0.009883 -0.013422
												}
											}
										}
									}
									JOINT thumb.01.R
									{
										OFFSET 0.009113 -0.002381 -0.024211
										CHANNELS 6 Xposition Yposition Zposition Xrotation Yrotation Zrotation
										JOINT thumb.02.R
										{
											OFFSET -0.019694 -0.035097 -0.011088
											CHANNELS 3 Xrotation Yrotation Zrotation
											JOINT thumb.03.R
											{
												OFFSET -0.024867 -0.021762 -0.005168
												CHANNELS 3 Xrotation Yrotation Zrotation
												End Site
												{
													OFFSET -0.016120 -0.013036 -0.001565
												}
											}
										}
									}
								}
								JOINT palm.02.R
								{
									OFFSET -0.032828 -0.025095 0.012286
									CHANNELS 6 Xposition Yposition Zposition Yrotation Xrotation Zrotation
									JOINT f_middle.01.R
									{
										OFFSET -0.055721 -0.038472 0.008040
										CHANNELS 3 Xrotation Yrotation Zrotation
										JOINT f_middle.02.R
										{
											OFFSET -0.038101 -0.027593 -0.015557
											CHANNELS 3 Xrotation Yrotation Zrotation
											JOINT f_middle.03.R
											{
												OFFSET -0.021730 -0.016530 -0.017054
												CHANNELS 3 Xrotation Yrotation Zrotation
												End Site
												{
													OFFSET -0.014096 -0.010608 -0.014293
												}
											}
										}
									}
								}
								JOINT palm.03.R
								{
									OFFSET -0.039192 -0.011488 0.008390
									CHANNELS 6 Xposition Yposition Zposition Yrotation Xrotation Zrotation
									JOINT f_ring.01.R
									{
										OFFSET -0.061839 -0.031387 0.007876
										CHANNELS 3 Xrotation Yrotation Zrotation
										JOINT f_ring.02.R
										{
											OFFSET -0.033068 -0.023437 -0.019125
											CHANNELS 3 Xrotation Yrotation Zrotation
											JOINT f_ring.03.R
											{
												OFFSET -0.021371 -0.015393 -0.017822
												CHANNELS 3 Xrotation Yrotation Zrotation
												End Site
												{
													OFFSET -0.008654 -0.007321 -0.014684
												}
											}
										}
									}
								}
								JOINT palm.04.R
								{
									OFFSET -0.043421 0.002443 0.002845
									CHANNELS 6 Xposition Yposition Zposition Yrotation Xrotation Zrotation
									JOINT f_pinky.01.R
									{
										OFFSET -0.069983 -0.026169 0.003599
										CHANNELS 3 Xrotation Yrotation Zrotation
										JOINT f_pinky.02.R
										{
											OFFSET -0.018501 -0.012842 -0.016428
											CHANNELS 3 Xrotation Yrotation Zrotation
											JOINT f_pinky.03.R
											{
												OFFSET -0.013806 -0.009821 -0.014946
												CHANNELS 3 Xrotation Yrotation Zrotation
												End Site
												{
													OFFSET -0.007226 -0.006121 -0.011655
												}
											}
										}
									}
								}
							}
						}
					}
				}
			}
		}
	}
	JOINT pelvis.L
	{
		OFFSET 0.000000 0.000000 0.000000
		CHANNELS 6 Xposition Yposition Zposition Xrotation Yrotation Zrotation
		JOINT thigh.L
		{
			OFFSET 0.101675 0.001054 -0.000000
			CHANNELS 3 Xrotation Yrotation Zrotation
			JOINT shin.L
			{
				OFFSET 0.000000 -0.534800 0.041000
				CHANNELS 3 Xrotation Yrotation Zrotation
				JOINT foot.L
				{
					OFFSET 0.000000 -0.452000 -0.044800
					CHANNELS 3 Xrotation Yrotation Zrotation
					JOINT toe.L
					{
						OFFSET -0.000000 -0.068500 0.109600
						CHANNELS 3 Xrotation Yrotation Zrotation
						End Site
						{
							OFFSET -0.000000 0.000000 0.067200
						}
					}
				}
				JOINT heel.L
				{
					OFFSET 0.000000 -0.452000 -0.044800
					CHANNELS 3 Xrotation Yrotation Zrotation
					JOINT heel.02.L
					{
						OFFSET -0.038000 -0.085200 0.016200
						CHANNELS 6 Xposition Yposition Zposition Xrotation Yrotation Zrotation
						End Site
						{
							OFFSET 0.080000 -0.000000 0.000000
						}
					}
				}
			}
		}
	}
	JOINT pelvis.R
	{
		OFFSET 0.000000 0.000000 0.000000
		CHANNELS 6 Xposition Yposition Zposition Xrotation Yrotation Zrotation
		JOINT thigh.R
		{
			OFFSET -0.094325 0.001054 0.000000
			CHANNELS 3 Xrotation Yrotation Zrotation
			JOINT shin.R
			{
				OFFSET 0.000000 -0.534800 0.041000
				CHANNELS 3 Xrotation Yrotation Zrotation
				JOINT foot.R
				{
					OFFSET 0.000000 -0.452000 -0.044800
					CHANNELS 3 Xrotation Yrotation Zrotation
					JOINT toe.R
					{
						OFFSET -0.000000 -0.068500 0.109600
						CHANNELS 3 Xrotation Yrotation Zrotation
						End Site
						{
							OFFSET -0.000000 0.000000 0.067200
						}
					}
				}
				JOINT heel.R
				{
					OFFSET 0.000000 -0.452000 -0.044800
					CHANNELS 3 Xrotation Yrotation Zrotation
					JOINT heel.02.R
					{
						OFFSET 0.038000 -0.085200 0.016200
						CHANNELS 6 Xposition Yposition Zposition Xrotation Yrotation Zrotation
						End Site
						{
							OFFSET -0.080000 0.000000 -0.000000
						}
					}
				}
			}
		}
	}
}
MOTION
Frames: 4
Frame Time: 0.041667
-0.008979 0.297653 -0.010384 4.620099 -48.115462 1.329746 -0.000001 -0.000005 0.000000 -0.000001 -0.000003 -0.000000 -0.000000 -0.000001 0.000000 0.000001 -0.000002 0.000000 0.000924 0.155147 0.009274 7.137377 -0.008456 6.837834 0.019937 0.078966 0.057518 -12.756578 5.055841 28.454406 0.177025 -0.020465 -0.095062 -7.559812 13.092269 -78.468000 5.865916 4.680806 -8.722433 -0.000006 0.000000 -0.000002 0.021770 -0.038291 0.012954 0.000001 0.000002 0.000001 0.000001 -0.000001 0.000001 0.000000 0.000001 0.000005 -0.000003 0.000002 0.000004 -0.009090 -0.002348 -0.024224 -0.000000 0.000000 0.000001 -0.000001 0.000000 0.000003 -0.000002 0.000002 0.000001 0.032823 -0.025104 0.012281 0.000001 0.000002 0.000002 -0.000003 0.000005 -0.000005 -0.000004 0.000000 0.000001 -0.000006 -0.000006 -0.000001 0.039230 -0.011402 0.008390 0.000000 0.000004 0.000004 0.000001 0.000000 -0.000002 0.000002 0.000003 0.000001 0.000003 0.000003 0.000001 0.043417 0.002450 0.002889 0.000000 0.000003 -0.000000 -0.000006 -0.000003 0.000001 0.000002 0.000004 -0.000003 0.000007 0.000004 -0.000005 -0.016662 0.078957 0.057696 -16.372566 8.112027 -26.716843 -0.176972 -0.020537 -0.095144 -12.216219 -10.075853 62.681117 -35.634224 11.330102 49.641808 0.000001 -0.000004 0.000001 -0.021773 -0.038278 0.012988 0.000004 -0.000002 0.000002 -0.000000 0.000001 -0.000001 -0.000003 -0.000000 -0.000004 -0.000001 0.000002 0.000002 0.009114 -0.002381 -0.024212 0.000002 -0.000001 0.000000 -0.000003 0.000000 -0.000001 0.000001 0.000001 -0.000003 -0.032828 -0.025095 0.012286 0.000004 -0.000002 0.000001 -0.000001 0.000003 0.000002 -0.000003 0.000003 0.000001 -0.000003 0.000003 -0.000004 -0.039192 -0.011488 0.008390 0.000003 -0.000001 -0.000000 -0.000001 0.000006 -0.000003 0.000003 -0.000002 0.000002 -0.000004 0.000004 -0.000002 -0.043421 0.002443 0.002845 0.000004 -0.000002 0.000002 -0.000004 0.000000 -0.000002 -0.000002 -0.000003 0.000000 -0.000002 0.000003 -0.000002 0.000000 0.000000 -0.000000 -1.066082 0.289548 -5.140156 7.319060 -0.512486 -6.821156 14.428536 0.745887 -7.545589 0.000002 -0.000003 0.000001 -0.000001 0.000005 0.000002 0.000000 -0.000005 -0.000004 -0.038000 -0.085200 0.016200 0.000001 0.000003 -0.000004 0.000000 0.000000 0.000000 -1.035461 0.287112 -3.906124 6.583129 0.400495 5.347576 22.172203 1.276076 -12.987162 -0.000002 0.000002 0.000001 -0.000007 -0.000002 0.000000 0.000005 0.000004 0.000001 0.038000 -0.085200 0.016200 -0.000002 0.000001 -0.000003 
-0.008093 0.292691 -0.011419 6.448271 -41.598475 3.497164 -0.000001 -0.000000 0.000000 0.000000 -0.000001 -0.000000 -0.000000 0.000003 -0.000000 -0.000000 -0.000001 0.000000 0.000924 0.155148 0.009274 6.684454 -0.007011 4.999239 0.019937 0.078966 0.057518 -9.285159 4.694713 27.576045 0.177025 -0.020465 -0.095062 -8.049363 12.987913 -78.452898 3.146174 1.605108 -8.139335 -0.000006 0.000003 0.000001 0.021770 -0.038291 0.012954 -0.000001 0.000001 -0.000004 -0.000001 -0.000001 0.000003 -0.000001 0.000003 0.000005 0.000002 0.000002 0.000003 -0.009090 -0.002348 -0.024223 0.000001 -0.000000 0.000003 0.000002 -0.000001 0.000003 0.000000 0.000001 -0.000006 0.032823 -0.025104 0.012281 -0.000001 0.000002 0.000000 0.000003 -0.000003 -0.000004 -0.000006 -0.000005 0.000003 -0.000001 -0.000001 -0.000001 0.039230 -0.011402 0.008390 -0.000001 0.000003 0.000002 0.000000 0.000000 0.000001 0.000000 0.000005 0.000001 0.000007 0.000003 0.000001 0.043417 0.002450 0.002889 -0.000001 -0.000000 -0.000005 0.000000 -0.000006 -0.000004 -0.000003 0.000000 0.000001 -0.000004 -0.000006 -0.000003 -0.016662 0.078957 0.057696 -13.227827 6.894345 -25.332683 -0.176972 -0.020537 -0.095144 -8.142681 -10.523239 68.075970 -0.073716 3.460131 18.235114 -0.000002 0.000001 -0.000002 -0.021773 -0.038278 0.012988 -0.000001 -0.000001 -0.000003 -0.000003 0.000000 -0.000003 -0.000001 -0.000000 -0.000004 -0.000001 0.000002 0.000005 0.009114 -0.002381 -0.024212 -0.000000 -0.000003 -0.000001 -0.000000 -0.000003 0.000002 0.000001 -0.000000 -0.000004 -0.032828 -0.025095 0.012286 0.000001 -0.000002 -0.000003 0.000001 0.000001 0.000001 -0.000000 0.000002 -0.000001 -0.000002 0.000006 -0.000005 -0.039192 -0.011488 0.008390 -0.000001 -0.000000 0.000001 0.000001 0.000001 -0.000003 0.000003 -0.000001 0.000003 -0.000002 0.000001 -0.000001 -0.043421 0.002443 0.002845 0.000001 0.000001 0.000000 -0.000003 0.000004 -0.000001 -0.000001 0.000000 0.000002 0.000002 0.000001 0.000003 0.000000 0.000000 -0.000000 -1.104103 0.264813 -4.754476 6.900418 -0.561011 -7.446807 15.588607 0.701131 -7.090270 0.000002 -0.000000 0.000003 -0.000002 -0.000001 -0.000001 0.000002 -0.000002 0.000003 -0.038000 -0.085200 0.016200 -0.000002 0.000002 -0.000000 0.000000 0.000000 -0.000000 -1.073256 0.262569 -3.520419 4.874062 0.377511 4.940238 28.818409 1.207460 -12.277210 0.000003 -0.000002 -0.000001 0.000001 0.000000 -0.000002 0.000005 -0.000002 -0.000001 0.038000 -0.085200 0.016200 0.000004 -0.000002 0.000000 
-0.008718 0.299194 -0.009664 7.082850 -45.152437 3.818798 -0.000001 -0.000001 -0.000000 0.000001 0.000001 0.000000 -0.000001 0.000001 -0.000000 -0.000000 0.000003 -0.000000 0.000924 0.155148 0.009274 6.277403 -0.006259 5.017655 0.019937 0.078966 0.057518 -8.918850 5.252205 27.908208 0.177024 -0.020465 -0.095062 -7.627504 12.696678 -77.969949 2.551408 0.607657 -9.538346 0.000000 -0.000001 0.000002 0.021770 -0.038291 0.012954 0.000001 -0.000001 -0.000004 0.000005 -0.000001 0.000003 -0.000003 -0.000000 0.000008 0.000003 0.000002 0.000002 -0.009090 -0.002348 -0.024224 0.000005 -0.000004 0.000000 0.000003 -0.000002 -0.000001 -0.000003 -0.000000 0.000001 0.032823 -0.025104 0.012281 0.000000 -0.000003 0.000004 0.000004 -0.000001 -0.000004 -0.000002 -0.000001 -0.000000 -0.000000 0.000000 0.000004 0.039230 -0.011402 0.008390 0.000002 -0.000004 0.000003 -0.000003 0.000000 0.000003 -0.000004 0.000006 0.000001 0.000001 -0.000002 0.000003 0.043417 0.002450 0.002889 0.000000 -0.000000 -0.000005 0.000003 -0.000008 0.000002 -0.000003 0.000006 -0.000002 0.000000 -0.000003 -0.000001 -0.016662 0.078957 0.057696 -12.706368 7.319828 -25.861729 -0.176972 -0.020537 -0.095144 -8.147183 -10.318010 65.866601 -6.439795 8.146475 28.412006 -0.000002 0.000001 0.000004 -0.021773 -0.038278 0.012988 0.000002 0.000000 0.000000 -0.000001 0.000003 0.000001 0.000001 -0.000000 0.000001 0.000001 0.000000 0.000001 0.009114 -0.002381 -0.024212 -0.000000 0.000001 0.000001 0.000001 0.000000 -0.000001 0.000003 0.000000 -0.000003 -0.032828 -0.025095 0.012286 0.000001 -0.000000 -0.000001 0.000001 0.000002 -0.000001 -0.000000 -0.000000 -0.000001 0.000001 0.000000 -0.000000 -0.039192 -0.011488 0.008390 0.000001 0.000002 -0.000000 -0.000002 0.000003 -0.000003 0.000001 -0.000004 0.000002 0.000002 0.000001 -0.000001 -0.043421 0.002443 0.002845 0.000001 0.000001 0.000002 -0.000002 0.000004 -0.000001 0.000004 0.000000 0.000002 0.000003 0.000006 -0.000002 -0.000000 0.000000 0.000000 -1.034175 0.328410 -5.724775 7.501060 -0.565831 -7.535109 12.517654 0.754114 -7.629285 0.000000 0.000002 -0.000003 -0.000004 0.000001 -0.000002 0.000002 0.000000 -0.000002 -0.038000 -0.085200 0.016200 -0.000001 0.000002 -0.000004 -0.000000 0.000000 0.000000 -1.003267 0.325638 -4.490770 5.958584 0.309409 4.117472 24.753379 1.248194 -12.698404 -0.000003 -0.000004 0.000003 0.000003 0.000004 -0.000003 0.000002 -0.000005 0.000003 0.038000 -0.085200 0.016200 0.000003 -0.000001 0.000000 
-0.008667 0.300315 -0.008904 8.155641 -48.519864 4.134128 -0.000001 0.000001 -0.000001 0.000000 0.000002 -0.000000 -0.000000 0.000000 -0.000000 -0.000000 0.000001 0.000000 0.000924 0.155148 0.009274 5.910977 -0.006212 5.861562 0.019937 0.078966 0.057518 -10.556316 5.441190 28.572105 0.177024 -0.020465 -0.095062 -8.971352 13.081637 -76.928557 3.126248 1.194911 -9.810376 -0.000004 0.000000 0.000001 0.021770 -0.038291 0.012954 0.000001 0.000006 -0.000002 0.000002 -0.000001 0.000003 -0.000005 0.000001 0.000007 -0.000000 0.000005 -0.000003 -0.009090 -0.002348 -0.024223 0.000002 -0.000003 0.000000 0.000001 0.000003 -0.000000 0.000005 -0.000005 0.000003 0.032823 -0.025104 0.012281 -0.000001 0.000006 0.000002 0.000003 -0.000001 -0.000004 -0.000000 -0.000001 0.000003 -0.000002 -0.000001 0.000001 0.039230 -0.011402 0.008390 -0.000001 0.000003 0.000004 0.000000 0.000001 -0.000002 0.000002 0.000003 0.000001 0.000004 -0.000004 0.000003 0.043417 0.002450 0.002889 -0.000002 0.000008 -0.000005 0.000001 -0.000003 -0.000002 -0.000002 -0.000003 0.000002 -0.000005 -0.000002 -0.000001 -0.016662 0.078956 0.057696 -13.452080 7.754325 -26.699080 -0.176972 -0.020537 -0.095144 -10.110308 -10.178724 63.286559 -14.385253 10.512061 39.654398 0.000001 0.000005 0.000001 -0.021773 -0.038278 0.012988 0.000000 0.000000 -0.000003 -0.000001 0.000002 0.000001 -0.000001 -0.000001 -0.000008 0.000003 0.000000 0.000001 0.009114 -0.002381 -0.024211 0.000003 0.000000 -0.000001 0.000001 -0.000001 -0.000005 0.000001 -0.000000 -0.000003 -0.032828 -0.025095 0.012286 0.000002 0.000001 -0.000001 -0.000003 0.000001 -0.000005 0.000001 -0.000002 -0.000004 -0.000002 0.000003 -0.000004 -0.039192 -0.011488 0.008390 -0.000001 0.000003 -0.000000 0.000003 0.000004 -0.000002 0.000000 -0.000001 -0.000004 0.000001 -0.000001 -0.000000 -0.043421 0.002442 0.002844 -0.000000 0.000004 -0.000001 -0.000003 0.000004 -0.000002 -0.000001 -0.000001 -0.000000 0.000002 0.000003 0.000001 0.000000 0.000000 -0.000000 -1.025771 0.377879 -6.433641 7.457376 -0.558437 -7.432043 9.888449 0.822250 -8.323629 0.000002 0.000001 0.000001 -0.000000 0.000004 0.000001 0.000002 0.000002 0.000002 -0.038000 -0.085200 0.016200 -0.000000 0.000002 0.000006 0.000000 0.000000 -0.000000 -0.993720 0.374598 -5.199665 5.092259 0.235978 3.101451 23.083207 1.287401 -13.104527 -0.000005 0.000003 -0.000003 0.000003 0.000004 -0.000001 0.000005 0.000000 -0.000003 0.038000 -0.085200 0.016200 0.000001 0.000003 0.000004 
